<svg width="32" height="44" viewBox="0 0 32 44" fill="none" xmlns="http://www.w3.org/2000/svg">
<path d="M22.8967 27.343L19.3967 23.843C20.2784 22.7632 20.7115 21.3859 20.6066 19.9958C20.5017 18.6057 19.8667 17.309 18.8329 16.3737C17.7991 15.4385 16.4455 14.9362 15.0518 14.9706C13.6582 15.005 12.331 15.5735 11.3446 16.5586C10.3583 17.5437 9.78804 18.8702 9.75183 20.2638C9.71563 21.6574 10.2162 23.0116 11.1501 24.0466C12.084 25.0816 13.3799 25.7183 14.7699 25.825C16.1599 25.9317 17.5377 25.5003 18.6187 24.62L22.1187 28.12C22.1697 28.1711 22.2304 28.2116 22.2971 28.2393C22.3639 28.2669 22.4354 28.2811 22.5077 28.2811C22.5799 28.2811 22.6514 28.2669 22.7182 28.2393C22.7849 28.2116 22.8456 28.1711 22.8967 28.12C22.9477 28.0689 22.9883 28.0083 23.0159 27.9415C23.0436 27.8748 23.0578 27.8032 23.0578 27.731C23.0578 27.6588 23.0436 27.5872 23.0159 27.5205C22.9883 27.4537 22.9477 27.3931 22.8967 27.342V27.343ZM10.8757 20.418C10.8759 19.5638 11.1293 18.7289 11.604 18.0188C12.0787 17.3086 12.7533 16.7552 13.5425 16.4285C14.3318 16.1017 15.2001 16.0163 16.0379 16.1831C16.8756 16.3499 17.6451 16.7613 18.249 17.3654C18.8529 17.9694 19.2642 18.739 19.4307 19.5768C19.5973 20.4145 19.5117 21.2829 19.1848 22.072C18.8579 22.8612 18.3043 23.5357 17.5941 24.0102C16.8838 24.4847 16.0488 24.738 15.1947 24.738C14.0493 24.7369 12.9513 24.2814 12.1415 23.4715C11.3317 22.6615 10.8765 21.5633 10.8757 20.418Z" fill="white"/>
</svg>
